# xmcd CD database file
#
# Track frame offsets:
#	150
#	10262
#	22712
#	30450
#	38437
#	48512
#	57687
#	68725
#	78887
#	90962
#	98625
#
# Disc length: 1480 seconds
#
# Revision: 0
# Processed by: cddbd v1.4PL0 Copyright (c) Steve Scherf et al.
# Submitted via: CDex 1.40Beta6
#
DISCID=7005c60b
DTITLE=Johnny Cash - The singing storyteller
DYEAR=1991
DGENRE=Country
TTITLE0=Goodbye little darling
TTITLE1=Give my love to Rose
TTITLE2=Hey good looking
TTITLE3=I can't help it
TTITLE4=I could never be ashamed of you
TTITLE5=I couldn't keep from crying
TTITLE6=I love you because
TTITLE7=The ways of a woman in love
TTITLE8=You're the nearest thing to heaven
TTITLE9=Come in, stranger
TTITLE10=Next in line
EXTD=
EXTT0=
EXTT1=
EXTT2=
EXTT3=
EXTT4=
EXTT5=
EXTT6=
EXTT7=
EXTT8=
EXTT9=
EXTT10=
PLAYORDER=
